<svg xmlns="http://www.w3.org/2000/svg" style="display: none;">
  <symbol id="linkedin" viewBox="0 0 24 24">
    <path d="M20.47,2H3.53A1.45,1.45,0,0,0,2.06,3.43V20.57A1.45,1.45,0,0,0,3.53,22H20.47a1.45,1.45,0,0,0,1.47-1.43V3.43A1.45,1.45,0,0,0,20.47,2ZM8.09,18.74h-3v-9h3ZM6.59,8.48h0a1.56,1.56,0,1,1,0-3.12,1.57,1.57,0,1,1,0,3.12ZM18.91,18.74h-3V13.91c0-1.21-.43-2-1.52-2A1.65,1.65,0,0,0,12.85,13a2,2,0,0,0-.1.73v5h-3s0-8.18,0-9h3V11A3,3,0,0,1,15.46,9.5c2,0,3.45,1.29,3.45,4.06Z"/>  
  </symbol>
  <symbol id="github" viewBox="0 0 24 24">
    <path d="M12 0.297c-6.63 0-12 5.373-12 12 0 5.303 3.438 9.8 8.205 11.385 0.6 0.113 0.82-0.258 0.82-0.577 0-0.285-0.010-1.040-0.015-2.040-3.338 0.724-4.042-1.61-4.042-1.61-0.546-1.385-1.335-1.755-1.335-1.755-1.087-0.744 0.084-0.729 0.084-0.729 1.205 0.084 1.838 1.236 1.838 1.236 1.070 1.835 2.809 1.305 3.495 0.998 0.108-0.776 0.417-1.305 0.76-1.605-2.665-0.3-5.466-1.332-5.466-5.93 0-1.31 0.465-2.38 1.235-3.22-0.135-0.303-0.54-1.523 0.105-3.176 0 0 1.005-0.322 3.3 1.23 0.96-0.267 1.98-0.399 3-0.405 1.020 0.006 2.040 0.138 3 0.405 2.28-1.552 3.285-1.23 3.285-1.23 0.645 1.653 0.24 2.873 0.12 3.176 0.765 0.84 1.23 1.91 1.23 3.22 0 4.61-2.805 5.625-5.475 5.92 0.42 0.36 0.81 1.096 0.81 2.22 0 1.606-0.015 2.896-0.015 3.286 0 0.315 0.21 0.69 0.825 0.57 4.801-1.574 8.236-6.074 8.236-11.369 0-6.627-5.373-12-12-12z" />  
  </symbol> 
  <symbol id="mail" viewBox="0 0 24 24" height="24" width="24">
    <g id="SVGRepo_bgCarrier" stroke-width="0"></g>
    <g id="SVGRepo_tracerCarrier" stroke-linecap="round" stroke-linejoin="round"></g>
    <g id="SVGRepo_iconCarrier"> 
      <path fill-rule="evenodd" clip-rule="evenodd" d="M3.75 5.25L3 6V18L3.75 18.75H20.25L21 18V6L20.25 5.25H3.75ZM4.5 7.6955V17.25H19.5V7.69525L11.9999 14.5136L4.5 7.6955ZM18.3099 6.75H5.68986L11.9999 12.4864L18.3099 6.75Z" fill="#ffffff">
      </path> 
    </g>
 </symbol>
</svg>
